<svg xmlns="http://www.w3.org/2000/svg" xmlns:xlink="http://www.w3.org/1999/xlink"><symbol id="arrow-right" viewBox="0 0 16 16">
<path d="M8 1V15" stroke="white" stroke-width="2" stroke-linecap="round" stroke-linejoin="round"/>
<path d="M15 8L8 15L1 8" stroke="white" stroke-width="2" stroke-linecap="round" stroke-linejoin="round"/>
</symbol><symbol id="mail-icon" viewBox="0 0 26 20">
<path d="M24.2273 0H1.77273C0.768182 0 0 0.764706 0 1.76471V18.2353C0 19.2353 0.768182 20 1.77273 20H24.2273C25.2318 20 26 19.2353 26 18.2353V1.76471C26 0.764706 25.2318 0 24.2273 0ZM24.2273 17L19.5591 12.3529C19.2045 12 18.6727 12 18.3182 12.3529C17.9636 12.7059 17.9636 13.2353 18.3182 13.5882L22.9864 18.2353H3.01362L7.68182 13.5882C8.03636 13.2353 8.03636 12.7059 7.68182 12.3529C7.32727 12 6.79547 12 6.44092 12.3529L1.77273 17V5.70585L12.4091 13.7059C12.5864 13.8236 12.7636 13.8823 12.9409 13.8823C13.1182 13.8823 13.2954 13.8236 13.4727 13.7059L24.2273 5.70585V17ZM24.2273 1.76471V3.4706L12.9409 11.8235L1.77273 3.4706V1.76471H24.2273Z" fill="#D7D9DF"/>
</symbol><symbol id="phone-icon-accent" viewBox="0 0 30 30">
<path d="M7.3961 8.62432C7.31155 7.42623 7.57729 6.24606 8.2809 5.29684C8.8909 4.43632 9.68511 3.96636 10.6424 3.69172C11.4487 3.4525 11.9772 3.74561 12.2097 4.64204C12.5419 5.98224 13.016 7.3225 13.1881 8.73361C13.2425 9.35485 12.8408 10.2332 12.406 10.6856C11.3158 11.7589 11.5423 12.5399 12.3698 14.1643C12.6264 14.6881 13.0341 15.5934 13.8283 16.7919C14.6558 17.9992 15.0936 18.6472 16.1566 18.0975C17.3374 17.5035 18.198 17.8855 19.0889 18.8444C19.6928 19.5369 20.3572 20.1318 20.9612 20.8243C21.8339 21.8542 21.7946 22.5641 21.1121 23.2915C19.8831 24.6309 17.8538 25.0736 16.3439 24.1766C15.5104 23.6881 14.6799 23.0487 14.0186 22.303C11.1045 18.9825 9.00266 15.1212 7.73735 10.7632C7.53502 10.0265 7.4414 9.28104 7.3961 8.62432Z" stroke="#FE7865" stroke-width="2" stroke-miterlimit="10"/>
</symbol><symbol id="phone-icon-footer" viewBox="0 0 30 30">
<path d="M7.3961 8.62432C7.31155 7.42623 7.57729 6.24606 8.2809 5.29684C8.8909 4.43632 9.68511 3.96636 10.6424 3.69172C11.4487 3.4525 11.9772 3.74561 12.2097 4.64204C12.5419 5.98224 13.016 7.3225 13.1881 8.73361C13.2425 9.35485 12.8408 10.2332 12.406 10.6856C11.3158 11.7589 11.5423 12.5399 12.3698 14.1643C12.6264 14.6881 13.0341 15.5934 13.8283 16.7919C14.6558 17.9992 15.0936 18.6472 16.1566 18.0975C17.3374 17.5035 18.198 17.8855 19.0889 18.8444C19.6928 19.5369 20.3572 20.1318 20.9612 20.8243C21.8339 21.8542 21.7946 22.5641 21.1121 23.2915C19.8831 24.6309 17.8538 25.0736 16.3439 24.1766C15.5104 23.6881 14.6799 23.0487 14.0186 22.303C11.1045 18.9825 9.00266 15.1212 7.73735 10.7632C7.53502 10.0265 7.4414 9.28104 7.3961 8.62432Z" stroke="#D7D9DF" stroke-width="2" stroke-miterlimit="10"/>
</symbol><symbol id="phone-icon" viewBox="0 0 30 30">
<path d="M7.3961 8.62432C7.31155 7.42623 7.57729 6.24606 8.2809 5.29684C8.8909 4.43632 9.68511 3.96636 10.6424 3.69172C11.4487 3.4525 11.9772 3.74561 12.2097 4.64204C12.5419 5.98224 13.016 7.3225 13.1881 8.73361C13.2425 9.35485 12.8408 10.2332 12.406 10.6856C11.3158 11.7589 11.5423 12.5399 12.3698 14.1643C12.6264 14.6881 13.0341 15.5934 13.8283 16.7919C14.6558 17.9992 15.0936 18.6472 16.1566 18.0975C17.3374 17.5035 18.198 17.8855 19.0889 18.8444C19.6928 19.5369 20.3572 20.1318 20.9612 20.8243C21.8339 21.8542 21.7946 22.5641 21.1121 23.2915C19.8831 24.6309 17.8538 25.0736 16.3439 24.1766C15.5104 23.6881 14.6799 23.0487 14.0186 22.303C11.1045 18.9825 9.00266 15.1212 7.73735 10.7632C7.53502 10.0265 7.4414 9.28104 7.3961 8.62432Z" stroke="#141517" stroke-width="2" stroke-miterlimit="10"/>
</symbol></svg>